<svg xmlns="http://www.w3.org/2000/svg" width="1024" height="1024" viewBox="0 0 1024 1024">
  <defs>
    <linearGradient id="kc-export-bg" x1="0" y1="0" x2="1" y2="1"><stop offset="0%" stop-color="#0B1030"></stop><stop offset="55%" stop-color="#171347"></stop><stop offset="100%" stop-color="#2C1454"></stop></linearGradient>
    <linearGradient id="kc-export-rim" x1="0" y1="0" x2="0" y2="1"><stop offset="0%" stop-color="#fff" stop-opacity="0.22"></stop><stop offset="50%" stop-color="#fff" stop-opacity="0"></stop><stop offset="100%" stop-color="#000" stop-opacity="0.3"></stop></linearGradient>
    <linearGradient id="kc-export-top" x1="0.3" y1="0" x2="0.7" y2="1"><stop offset="0%" stop-color="#FCFCFE"></stop><stop offset="60%" stop-color="#EAEAF1"></stop><stop offset="100%" stop-color="#D2D2DE"></stop></linearGradient>
    <linearGradient id="kc-export-front" x1="0" y1="0" x2="0" y2="1"><stop offset="0%" stop-color="#A6A6B8"></stop><stop offset="100%" stop-color="#6E6E84"></stop></linearGradient>
    <linearGradient id="kc-export-right" x1="0" y1="0" x2="1" y2="0"><stop offset="0%" stop-color="#9090A6"></stop><stop offset="100%" stop-color="#5A5A70"></stop></linearGradient>
    <linearGradient id="kc-export-left" x1="1" y1="0" x2="0" y2="0"><stop offset="0%" stop-color="#8A8AA0"></stop><stop offset="100%" stop-color="#56566B"></stop></linearGradient>
    <linearGradient id="kc-export-wave" x1="0" y1="1" x2="1" y2="0"><stop offset="0%" stop-color="#5BD1FF"></stop><stop offset="100%" stop-color="#2E8BFF"></stop></linearGradient>
    <radialGradient id="kc-export-sheen" cx="0.32" cy="0.1" r="0.65"><stop offset="0%" stop-color="#fff" stop-opacity="0.75"></stop><stop offset="55%" stop-color="#fff" stop-opacity="0"></stop></radialGradient>
    <radialGradient id="kc-export-shadow" cx="0.5" cy="0.5" r="0.5"><stop offset="0%" stop-color="#000" stop-opacity="0.6"></stop><stop offset="100%" stop-color="#000" stop-opacity="0"></stop></radialGradient>
    <radialGradient id="kc-export-glow" cx="0.5" cy="0.55" r="0.6"><stop offset="0%" stop-color="#5847C8" stop-opacity="0.5"></stop><stop offset="60%" stop-color="#3B6BFF" stop-opacity="0.12"></stop><stop offset="100%" stop-color="#000" stop-opacity="0"></stop></radialGradient>
    <clipPath id="kc-export-squircle"><rect x="0" y="0" width="1024" height="1024" rx="229.0688" ry="229.0688"></rect></clipPath>
  </defs>
  <g clip-path="url(#kc-export-squircle)">
    <rect width="1024" height="1024" fill="url(#kc-export-bg)"></rect>
    <rect width="1024" height="1024" fill="url(#kc-export-glow)"></rect>
    
    <g stroke="url(#kc-export-wave)" fill="none" stroke-linecap="round" stroke-width="14">
      <path d="M 800 460 Q 880 360 855 240" opacity="0.95"></path>
      <path d="M 850 510 Q 950 380 945 200" opacity="0.6"></path>
      <path d="M 895 555 Q 1010 380 1015 165" opacity="0.32"></path>
    </g>
    <ellipse cx="512" cy="760" rx="280" ry="30" fill="url(#kc-export-shadow)"></ellipse>
    <path d="M 200 668 L 824 668 L 804 700 L 220 700 Z" fill="#272838" opacity="0.85"></path>
    <path d="M 230 600 L 794 600 L 820 668 L 204 668 Z" fill="url(#kc-export-front)"></path>
    <path d="M 782 320 L 794 600 L 820 668 L 814 336 Z" fill="url(#kc-export-right)" opacity="0.92"></path>
    <path d="M 242 320 L 230 600 L 204 668 L 210 336 Z" fill="url(#kc-export-left)" opacity="0.88"></path>
    <path d="M 242 320 Q 512 306 782 320 L 794 600 Q 512 612 230 600 Z" fill="url(#kc-export-top)"></path>
    <path d="M 242 320 Q 512 306 782 320 L 794 600 Q 512 612 230 600 Z" fill="url(#kc-export-sheen)"></path>
    <text x="512" y="464" text-anchor="middle" dominant-baseline="middle" font-family="JetBrains Mono, SF Mono, monospace" font-weight="700" font-size="230" fill="#10133A" letter-spacing="-6">K</text>
    <path d="M 248 321 Q 512 308 776 321" fill="none" stroke="#fff" stroke-opacity="0.85" stroke-width="2"></path>
    <rect x="0.5" y="0.5" width="1023" height="1023" rx="229.0688" ry="229.0688" fill="none" stroke="url(#kc-export-rim)" stroke-width="2"></rect>
  </g>
</svg>